<svg width="1024" height="1024" xmlns="http://www.w3.org/2000/svg" class="icon">
 <defs>
  <style type="text/css"/>
 </defs>
 <g>
  <title>background</title>
  <rect fill="none" id="canvas_background" height="402" width="582" y="-1" x="-1"/>
 </g>
 <g>
  <title>Layer 1</title>
  <path id="svg_1" fill="#0e932e" d="m910.67549,338.53323l-162.11421,0l0,100.63193l162.11421,0l0,-100.63193zm0,128.11384l-162.11421,0l0,100.69231l162.11421,0l0,-100.69231zm0,-256.16629l-162.11421,0l0,100.63193l162.11421,0l0,-100.63193zm0,507.74202l-162.11421,0l0,100.69538l162.11421,0l0,-100.69538zm74.51204,-608.37293l-389.9298,0c-4.65298,0 -9.09003,0.95475 -13.15256,2.67288l0,-108.76312l-578.34606,115.20995l0,785.99637l578.34709,115.2734l0,-103.30992c4.06252,1.72324 8.49958,2.68106 13.15255,2.68106l389.9298,0c19.35584,0 35.05234,-16.44044 35.05234,-36.60469l0,-736.55226c-0.00103,-20.2236 -15.69752,-36.60367 -35.05336,-36.60367zm-591.49963,571.83374l-70.10773,-4.5926l-52.5478,-132.70439l-56.95415,123.58469l-65.76482,-4.59055l83.26028,-151.00725l-74.44859,-164.65611l65.70137,-4.59362l43.80057,123.52329l8.74723,0l48.20488,-132.70337l70.10773,-4.52915l-87.60115,173.83925l87.60218,178.42981zm582.75139,192.14211l-394.33309,0l0,-54.90651l131.40377,0l0,-100.69538l-131.40377,0l0,-22.82894l131.40377,0l0,-100.63193l-131.40377,0l0,-27.42358l131.40377,0l0,-100.69231l-131.40377,0l0,-27.48191l131.40377,0l0,-100.63193l-131.40377,0l0,-27.42052l131.40377,0l0,-100.63193l-131.40377,0l0,-54.90549l394.33411,0l0,718.25043l-0.00102,0zm-65.7638,-279.06276l-162.11421,0l0,100.63193l162.11421,0l0,-100.63193z"/>
  <text xml:space="preserve" text-anchor="start" font-family="Helvetica, Arial, sans-serif" font-size="24" id="svg_2" y="784" x="225.5" stroke-width="0" stroke="#000" fill="#000000"/>
  <text stroke="null" transform="matrix(13.45888902926337,0,0,7.240925857353796,-3264.4259983039515,-4934.930876888903) " xml:space="preserve" text-anchor="start" font-family="'Times New Roman', Times, serif" font-size="24" id="svg_3" y="804" x="252.810599" stroke-opacity="null" stroke-width="0" fill="#0000ff">97</text>
 </g>
</svg>