<svg width="1024" height="1024" xmlns="http://www.w3.org/2000/svg" class="icon">
 <defs>
  <style type="text/css"/>
 </defs>
 <g>
  <title>background</title>
  <rect fill="none" id="canvas_background" height="402" width="582" y="-1" x="-1"/>
 </g>
 <g>
  <title>Layer 1</title>
  <path id="svg_1" fill="#d4237a" d="m-48.895,881.707l626.537,111.882l0,-984.557l-626.537,111.882l0,760.794l0,-0.001zm156.635,-581.784l89.505,0l44.753,84.532l44.753,-84.532l89.505,0l-89.505,169.066l111.882,211.331l-89.505,0l-67.129,-126.799l-67.129,126.799l-89.505,0l111.882,-211.331l-89.505,-169.066l-0.002,0zm581.784,179.009l-111.878,0l0,44.753l111.878,0l0,-44.753zm0,268.517l-111.878,0l0,44.753l111.878,0l0,-44.753zm0,-134.258l-111.878,0l0,44.753l111.878,0l0,-44.753zm0,-268.515l-111.878,0l0,44.753l111.878,0l0,-44.753zm0,-134.258l-111.878,0l0,44.753l111.878,0l0,-44.753zm67.128,447.526l156.634,0l0,-44.753l-156.634,0l0,44.753zm0,-134.258l156.634,0l0,-44.753l-156.634,0l0,44.753zm0,268.515l156.634,0l0,-44.753l-156.634,0l0,44.753zm156.635,-581.783l-156.634,0l0,44.753l156.634,0l0,-44.753zm-156.635,179.01l156.634,0l0,-44.753l-156.634,0l0,44.753zm-179.007,-313.269l0,44.753l402.77,0l0,760.794l-402.77,0l0,44.753l448.614,0l0,-850.3l-448.614,0z"/>
  <text stroke="null" transform="matrix(13.45888902926337,0,0,7.240925857353796,-3264.4259983039515,-4934.930876888903) " xml:space="preserve" text-anchor="start" font-family="'Times New Roman', Times, serif" font-size="24" id="svg_4" y="804" x="252.810599" stroke-opacity="null" stroke-width="0" fill="#0000ff">97</text>
 </g>
</svg>